<mxfile host="app.diagrams.net" agent="Mozilla/5.0 (Windows NT 10.0; Win64; x64) AppleWebKit/537.36 (KHTML, like Gecko) Chrome/134.0.0.0 YaBrowser/25.4.0.0 Safari/537.36" version="27.0.1">
  <diagram name="Страница — 1" id="ZvOFPFd1LDlMQfipLEBA">
    <mxGraphModel dx="1342" dy="708" grid="1" gridSize="10" guides="1" tooltips="1" connect="1" arrows="1" fold="1" page="1" pageScale="1" pageWidth="2000" pageHeight="2000" math="0" shadow="0">
      <root>
        <mxCell id="0" />
        <mxCell id="1" parent="0" />
        <mxCell id="UosIfSP0cZG50uaAi5DY-2" value="PC" style="verticalAlign=top;align=center;spacingTop=8;spacingLeft=2;spacingRight=12;shape=cube;size=10;direction=south;fontStyle=4;html=1;whiteSpace=wrap;" vertex="1" parent="1">
          <mxGeometry x="140" y="70" width="100" height="60" as="geometry" />
        </mxCell>
        <mxCell id="UosIfSP0cZG50uaAi5DY-3" value="PC" style="verticalAlign=top;align=center;spacingTop=8;spacingLeft=2;spacingRight=12;shape=cube;size=10;direction=south;fontStyle=4;html=1;whiteSpace=wrap;" vertex="1" parent="1">
          <mxGeometry x="500" y="70" width="100" height="60" as="geometry" />
        </mxCell>
        <mxCell id="UosIfSP0cZG50uaAi5DY-4" value="PC" style="verticalAlign=top;align=center;spacingTop=8;spacingLeft=2;spacingRight=12;shape=cube;size=10;direction=south;fontStyle=4;html=1;whiteSpace=wrap;" vertex="1" parent="1">
          <mxGeometry x="280" y="70" width="100" height="60" as="geometry" />
        </mxCell>
        <mxCell id="UosIfSP0cZG50uaAi5DY-5" value="PC" style="verticalAlign=top;align=center;spacingTop=8;spacingLeft=2;spacingRight=12;shape=cube;size=10;direction=south;fontStyle=4;html=1;whiteSpace=wrap;" vertex="1" parent="1">
          <mxGeometry x="640" y="70" width="100" height="60" as="geometry" />
        </mxCell>
        <mxCell id="UosIfSP0cZG50uaAi5DY-6" value="PC" style="verticalAlign=top;align=center;spacingTop=8;spacingLeft=2;spacingRight=12;shape=cube;size=10;direction=south;fontStyle=4;html=1;whiteSpace=wrap;" vertex="1" parent="1">
          <mxGeometry x="140" y="170" width="100" height="60" as="geometry" />
        </mxCell>
        <mxCell id="UosIfSP0cZG50uaAi5DY-7" value="PC" style="verticalAlign=top;align=center;spacingTop=8;spacingLeft=2;spacingRight=12;shape=cube;size=10;direction=south;fontStyle=4;html=1;whiteSpace=wrap;" vertex="1" parent="1">
          <mxGeometry x="280" y="170" width="100" height="60" as="geometry" />
        </mxCell>
        <mxCell id="UosIfSP0cZG50uaAi5DY-8" value="PC" style="verticalAlign=top;align=center;spacingTop=8;spacingLeft=2;spacingRight=12;shape=cube;size=10;direction=south;fontStyle=4;html=1;whiteSpace=wrap;" vertex="1" parent="1">
          <mxGeometry x="500" y="170" width="100" height="60" as="geometry" />
        </mxCell>
        <mxCell id="UosIfSP0cZG50uaAi5DY-9" value="PC" style="verticalAlign=top;align=center;spacingTop=8;spacingLeft=2;spacingRight=12;shape=cube;size=10;direction=south;fontStyle=4;html=1;whiteSpace=wrap;" vertex="1" parent="1">
          <mxGeometry x="640" y="170" width="100" height="60" as="geometry" />
        </mxCell>
        <mxCell id="UosIfSP0cZG50uaAi5DY-10" value="PC" style="verticalAlign=top;align=center;spacingTop=8;spacingLeft=2;spacingRight=12;shape=cube;size=10;direction=south;fontStyle=4;html=1;whiteSpace=wrap;" vertex="1" parent="1">
          <mxGeometry x="140" y="350" width="100" height="60" as="geometry" />
        </mxCell>
        <mxCell id="UosIfSP0cZG50uaAi5DY-11" value="PC" style="verticalAlign=top;align=center;spacingTop=8;spacingLeft=2;spacingRight=12;shape=cube;size=10;direction=south;fontStyle=4;html=1;whiteSpace=wrap;" vertex="1" parent="1">
          <mxGeometry x="500" y="350" width="100" height="60" as="geometry" />
        </mxCell>
        <mxCell id="UosIfSP0cZG50uaAi5DY-12" value="PC" style="verticalAlign=top;align=center;spacingTop=8;spacingLeft=2;spacingRight=12;shape=cube;size=10;direction=south;fontStyle=4;html=1;whiteSpace=wrap;" vertex="1" parent="1">
          <mxGeometry x="280" y="350" width="100" height="60" as="geometry" />
        </mxCell>
        <mxCell id="UosIfSP0cZG50uaAi5DY-13" value="PC" style="verticalAlign=top;align=center;spacingTop=8;spacingLeft=2;spacingRight=12;shape=cube;size=10;direction=south;fontStyle=4;html=1;whiteSpace=wrap;" vertex="1" parent="1">
          <mxGeometry x="640" y="350" width="100" height="60" as="geometry" />
        </mxCell>
        <mxCell id="UosIfSP0cZG50uaAi5DY-14" value="PC" style="verticalAlign=top;align=center;spacingTop=8;spacingLeft=2;spacingRight=12;shape=cube;size=10;direction=south;fontStyle=4;html=1;whiteSpace=wrap;" vertex="1" parent="1">
          <mxGeometry x="140" y="450" width="100" height="60" as="geometry" />
        </mxCell>
        <mxCell id="UosIfSP0cZG50uaAi5DY-15" value="PC" style="verticalAlign=top;align=center;spacingTop=8;spacingLeft=2;spacingRight=12;shape=cube;size=10;direction=south;fontStyle=4;html=1;whiteSpace=wrap;" vertex="1" parent="1">
          <mxGeometry x="280" y="450" width="100" height="60" as="geometry" />
        </mxCell>
        <mxCell id="UosIfSP0cZG50uaAi5DY-16" value="PC" style="verticalAlign=top;align=center;spacingTop=8;spacingLeft=2;spacingRight=12;shape=cube;size=10;direction=south;fontStyle=4;html=1;whiteSpace=wrap;" vertex="1" parent="1">
          <mxGeometry x="500" y="450" width="100" height="60" as="geometry" />
        </mxCell>
        <mxCell id="UosIfSP0cZG50uaAi5DY-17" value="PC" style="verticalAlign=top;align=center;spacingTop=8;spacingLeft=2;spacingRight=12;shape=cube;size=10;direction=south;fontStyle=4;html=1;whiteSpace=wrap;" vertex="1" parent="1">
          <mxGeometry x="680" y="490" width="100" height="60" as="geometry" />
        </mxCell>
        <mxCell id="UosIfSP0cZG50uaAi5DY-18" value="Коммутатор" style="verticalAlign=top;align=center;spacingTop=8;spacingLeft=2;spacingRight=12;shape=cube;size=10;direction=south;fontStyle=4;html=1;whiteSpace=wrap;" vertex="1" parent="1">
          <mxGeometry x="400" y="270" width="100" height="60" as="geometry" />
        </mxCell>
        <mxCell id="UosIfSP0cZG50uaAi5DY-21" value="" style="endArrow=none;html=1;rounded=0;exitX=-0.007;exitY=0.519;exitDx=0;exitDy=0;exitPerimeter=0;" edge="1" parent="1" source="UosIfSP0cZG50uaAi5DY-18">
          <mxGeometry width="50" height="50" relative="1" as="geometry">
            <mxPoint x="390" y="270" as="sourcePoint" />
            <mxPoint x="450" y="150" as="targetPoint" />
          </mxGeometry>
        </mxCell>
        <mxCell id="UosIfSP0cZG50uaAi5DY-22" value="" style="endArrow=none;html=1;rounded=0;" edge="1" parent="1">
          <mxGeometry width="50" height="50" relative="1" as="geometry">
            <mxPoint x="450" y="150" as="sourcePoint" />
            <mxPoint x="191" y="150" as="targetPoint" />
          </mxGeometry>
        </mxCell>
        <mxCell id="UosIfSP0cZG50uaAi5DY-23" value="" style="endArrow=none;html=1;rounded=0;" edge="1" parent="1">
          <mxGeometry width="50" height="50" relative="1" as="geometry">
            <mxPoint x="690" y="150" as="sourcePoint" />
            <mxPoint x="450" y="150" as="targetPoint" />
          </mxGeometry>
        </mxCell>
        <mxCell id="UosIfSP0cZG50uaAi5DY-25" value="" style="endArrow=none;html=1;rounded=0;exitX=0;exitY=0;exitDx=60;exitDy=55;exitPerimeter=0;entryX=-0.036;entryY=0.537;entryDx=0;entryDy=0;entryPerimeter=0;" edge="1" parent="1" source="UosIfSP0cZG50uaAi5DY-4" target="UosIfSP0cZG50uaAi5DY-7">
          <mxGeometry width="50" height="50" relative="1" as="geometry">
            <mxPoint x="470" y="170" as="sourcePoint" />
            <mxPoint x="211" y="170" as="targetPoint" />
          </mxGeometry>
        </mxCell>
        <mxCell id="UosIfSP0cZG50uaAi5DY-26" value="" style="endArrow=none;html=1;rounded=0;exitX=0;exitY=0;exitDx=60;exitDy=55;exitPerimeter=0;entryX=-0.036;entryY=0.537;entryDx=0;entryDy=0;entryPerimeter=0;" edge="1" parent="1">
          <mxGeometry width="50" height="50" relative="1" as="geometry">
            <mxPoint x="189.5" y="132" as="sourcePoint" />
            <mxPoint x="190.5" y="170" as="targetPoint" />
          </mxGeometry>
        </mxCell>
        <mxCell id="UosIfSP0cZG50uaAi5DY-27" value="" style="endArrow=none;html=1;rounded=0;exitX=0;exitY=0;exitDx=60;exitDy=55;exitPerimeter=0;entryX=-0.036;entryY=0.537;entryDx=0;entryDy=0;entryPerimeter=0;" edge="1" parent="1">
          <mxGeometry width="50" height="50" relative="1" as="geometry">
            <mxPoint x="540" y="132" as="sourcePoint" />
            <mxPoint x="541" y="170" as="targetPoint" />
          </mxGeometry>
        </mxCell>
        <mxCell id="UosIfSP0cZG50uaAi5DY-28" value="" style="endArrow=none;html=1;rounded=0;exitX=0;exitY=0;exitDx=60;exitDy=55;exitPerimeter=0;entryX=-0.036;entryY=0.537;entryDx=0;entryDy=0;entryPerimeter=0;" edge="1" parent="1">
          <mxGeometry width="50" height="50" relative="1" as="geometry">
            <mxPoint x="689.5" y="132" as="sourcePoint" />
            <mxPoint x="690.5" y="170" as="targetPoint" />
          </mxGeometry>
        </mxCell>
        <mxCell id="UosIfSP0cZG50uaAi5DY-34" value="" style="endArrow=none;html=1;rounded=0;" edge="1" parent="1">
          <mxGeometry width="50" height="50" relative="1" as="geometry">
            <mxPoint x="460" y="430" as="sourcePoint" />
            <mxPoint x="201" y="430" as="targetPoint" />
          </mxGeometry>
        </mxCell>
        <mxCell id="UosIfSP0cZG50uaAi5DY-35" value="" style="endArrow=none;html=1;rounded=0;" edge="1" parent="1">
          <mxGeometry width="50" height="50" relative="1" as="geometry">
            <mxPoint x="700" y="430" as="sourcePoint" />
            <mxPoint x="460" y="430" as="targetPoint" />
          </mxGeometry>
        </mxCell>
        <mxCell id="UosIfSP0cZG50uaAi5DY-36" value="" style="endArrow=none;html=1;rounded=0;exitX=0;exitY=0;exitDx=60;exitDy=55;exitPerimeter=0;entryX=-0.036;entryY=0.537;entryDx=0;entryDy=0;entryPerimeter=0;" edge="1" parent="1">
          <mxGeometry width="50" height="50" relative="1" as="geometry">
            <mxPoint x="335" y="410" as="sourcePoint" />
            <mxPoint x="336" y="448" as="targetPoint" />
          </mxGeometry>
        </mxCell>
        <mxCell id="UosIfSP0cZG50uaAi5DY-37" value="" style="endArrow=none;html=1;rounded=0;exitX=0;exitY=0;exitDx=60;exitDy=55;exitPerimeter=0;entryX=-0.036;entryY=0.537;entryDx=0;entryDy=0;entryPerimeter=0;" edge="1" parent="1">
          <mxGeometry width="50" height="50" relative="1" as="geometry">
            <mxPoint x="199.5" y="412" as="sourcePoint" />
            <mxPoint x="200.5" y="450" as="targetPoint" />
          </mxGeometry>
        </mxCell>
        <mxCell id="UosIfSP0cZG50uaAi5DY-38" value="" style="endArrow=none;html=1;rounded=0;exitX=0;exitY=0;exitDx=60;exitDy=55;exitPerimeter=0;entryX=-0.036;entryY=0.537;entryDx=0;entryDy=0;entryPerimeter=0;" edge="1" parent="1">
          <mxGeometry width="50" height="50" relative="1" as="geometry">
            <mxPoint x="550" y="412" as="sourcePoint" />
            <mxPoint x="551" y="450" as="targetPoint" />
          </mxGeometry>
        </mxCell>
        <mxCell id="UosIfSP0cZG50uaAi5DY-39" value="" style="endArrow=none;html=1;rounded=0;entryX=-0.026;entryY=0.519;entryDx=0;entryDy=0;entryPerimeter=0;" edge="1" parent="1" target="UosIfSP0cZG50uaAi5DY-17">
          <mxGeometry width="50" height="50" relative="1" as="geometry">
            <mxPoint x="700" y="430" as="sourcePoint" />
            <mxPoint x="700.5" y="450" as="targetPoint" />
          </mxGeometry>
        </mxCell>
        <mxCell id="UosIfSP0cZG50uaAi5DY-40" value="" style="endArrow=none;html=1;rounded=0;" edge="1" parent="1">
          <mxGeometry width="50" height="50" relative="1" as="geometry">
            <mxPoint x="451" y="430" as="sourcePoint" />
            <mxPoint x="451" y="330" as="targetPoint" />
          </mxGeometry>
        </mxCell>
        <mxCell id="UosIfSP0cZG50uaAi5DY-41" value="МФУ" style="verticalAlign=top;align=center;spacingTop=8;spacingLeft=2;spacingRight=12;shape=cube;size=10;direction=south;fontStyle=4;html=1;whiteSpace=wrap;" vertex="1" parent="1">
          <mxGeometry x="540" y="270" width="100" height="60" as="geometry" />
        </mxCell>
        <mxCell id="UosIfSP0cZG50uaAi5DY-42" value="Сервер" style="verticalAlign=top;align=center;spacingTop=8;spacingLeft=2;spacingRight=12;shape=cube;size=10;direction=south;fontStyle=4;html=1;whiteSpace=wrap;" vertex="1" parent="1">
          <mxGeometry x="800" y="130" width="100" height="60" as="geometry" />
        </mxCell>
        <mxCell id="UosIfSP0cZG50uaAi5DY-43" value="Маршрутизато&lt;span style=&quot;background-color: transparent; color: light-dark(rgb(0, 0, 0), rgb(255, 255, 255));&quot;&gt;р&lt;/span&gt;&lt;div&gt;&lt;span style=&quot;background-color: transparent; color: light-dark(rgb(0, 0, 0), rgb(255, 255, 255));&quot;&gt;Mikrotik&lt;/span&gt;&lt;/div&gt;" style="verticalAlign=top;align=center;spacingTop=8;spacingLeft=2;spacingRight=12;shape=cube;size=10;direction=south;fontStyle=4;html=1;whiteSpace=wrap;" vertex="1" parent="1">
          <mxGeometry x="240" y="270" width="120" height="60" as="geometry" />
        </mxCell>
        <mxCell id="UosIfSP0cZG50uaAi5DY-44" value="МФУ" style="verticalAlign=top;align=center;spacingTop=8;spacingLeft=2;spacingRight=12;shape=cube;size=10;direction=south;fontStyle=4;html=1;whiteSpace=wrap;" vertex="1" parent="1">
          <mxGeometry x="390" y="20" width="100" height="60" as="geometry" />
        </mxCell>
        <mxCell id="UosIfSP0cZG50uaAi5DY-45" value="МФУ" style="verticalAlign=top;align=center;spacingTop=8;spacingLeft=2;spacingRight=12;shape=cube;size=10;direction=south;fontStyle=4;html=1;whiteSpace=wrap;" vertex="1" parent="1">
          <mxGeometry x="390" y="510" width="100" height="60" as="geometry" />
        </mxCell>
        <mxCell id="UosIfSP0cZG50uaAi5DY-46" value="" style="endArrow=none;html=1;rounded=0;exitX=0;exitY=0;exitDx=60;exitDy=55;exitPerimeter=0;" edge="1" parent="1" source="UosIfSP0cZG50uaAi5DY-13">
          <mxGeometry width="50" height="50" relative="1" as="geometry">
            <mxPoint x="710" y="440" as="sourcePoint" />
            <mxPoint x="700" y="430" as="targetPoint" />
          </mxGeometry>
        </mxCell>
        <mxCell id="UosIfSP0cZG50uaAi5DY-47" value="" style="endArrow=none;html=1;rounded=0;" edge="1" parent="1">
          <mxGeometry width="50" height="50" relative="1" as="geometry">
            <mxPoint x="450" y="150" as="sourcePoint" />
            <mxPoint x="441" y="80" as="targetPoint" />
          </mxGeometry>
        </mxCell>
        <mxCell id="UosIfSP0cZG50uaAi5DY-48" value="" style="endArrow=none;html=1;rounded=0;exitX=0;exitY=0;exitDx=0;exitDy=45;exitPerimeter=0;" edge="1" parent="1" source="UosIfSP0cZG50uaAi5DY-45">
          <mxGeometry width="50" height="50" relative="1" as="geometry">
            <mxPoint x="460" y="500" as="sourcePoint" />
            <mxPoint x="451" y="430" as="targetPoint" />
          </mxGeometry>
        </mxCell>
        <mxCell id="UosIfSP0cZG50uaAi5DY-49" value="" style="endArrow=none;html=1;rounded=0;exitX=0;exitY=0;exitDx=35;exitDy=100;exitPerimeter=0;" edge="1" parent="1" source="UosIfSP0cZG50uaAi5DY-41">
          <mxGeometry width="50" height="50" relative="1" as="geometry">
            <mxPoint x="494" y="370" as="sourcePoint" />
            <mxPoint x="500" y="290" as="targetPoint" />
          </mxGeometry>
        </mxCell>
        <mxCell id="UosIfSP0cZG50uaAi5DY-50" value="" style="endArrow=none;html=1;rounded=0;exitX=0;exitY=0;exitDx=0;exitDy=0;exitPerimeter=0;" edge="1" parent="1" source="UosIfSP0cZG50uaAi5DY-18">
          <mxGeometry width="50" height="50" relative="1" as="geometry">
            <mxPoint x="840" y="270" as="sourcePoint" />
            <mxPoint x="846" y="190" as="targetPoint" />
            <Array as="points">
              <mxPoint x="770" y="240" />
            </Array>
          </mxGeometry>
        </mxCell>
        <mxCell id="UosIfSP0cZG50uaAi5DY-51" value="Бренд - KYOCERA&amp;nbsp;&#xa;Тип устройства - МФУ&amp;nbsp;&#xa;Тип печати - лазерный&amp;nbsp;&#xa;Цветность печати - черно-белая&amp;nbsp;&#xa;Функции - копирование, печать,&amp;nbsp;&#xa;сканирование" style="shape=note;whiteSpace=wrap;html=1;backgroundOutline=1;darkOpacity=0.05;fillColor=none;align=left;fontFamily=Times New Roman;" vertex="1" parent="1">
          <mxGeometry x="950" y="20" width="170" height="110" as="geometry" />
        </mxCell>
        <mxCell id="UosIfSP0cZG50uaAi5DY-52" value="" style="endArrow=none;dashed=1;html=1;rounded=0;exitX=0;exitY=0;exitDx=0;exitDy=0;exitPerimeter=0;" edge="1" parent="1" source="UosIfSP0cZG50uaAi5DY-44">
          <mxGeometry width="50" height="50" relative="1" as="geometry">
            <mxPoint x="1000" y="70" as="sourcePoint" />
            <mxPoint x="1050" y="20" as="targetPoint" />
          </mxGeometry>
        </mxCell>
        <mxCell id="UosIfSP0cZG50uaAi5DY-53" value="&lt;font&gt;AMD Ryzen 6600&lt;/font&gt;&lt;div&gt;&lt;font&gt;Монитор - 21.5 - 24``&lt;br&gt;RAM 8 gb&lt;br&gt;&lt;/font&gt;&lt;/div&gt;&lt;div&gt;&lt;font&gt;SSD 512- 1024 gb&lt;/font&gt;&lt;/div&gt;&lt;div&gt;&lt;span style=&quot;line-height: 105%;&quot;&gt;&lt;font&gt;Windows&lt;br&gt;10 Pro&lt;/font&gt;&lt;/span&gt;&lt;/div&gt;&lt;div&gt;&lt;span style=&quot;line-height: 105%;&quot;&gt;&lt;font&gt;MC Office&lt;/font&gt;&lt;/span&gt;&lt;/div&gt;&lt;div&gt;&lt;font face=&quot;Times New Roman, serif&quot;&gt;Браузеры&lt;/font&gt;&lt;/div&gt;&lt;div&gt;&lt;font face=&quot;Times New Roman, serif&quot;&gt;Мессенджеры&lt;/font&gt;&lt;/div&gt;&lt;div&gt;&lt;span style=&quot;line-height: 105%;&quot;&gt;&lt;font&gt;---&lt;br&gt;ЭДО(Диадок, СБИС)&lt;/font&gt;&lt;/span&gt;&lt;/div&gt;" style="shape=note;whiteSpace=wrap;html=1;backgroundOutline=1;darkOpacity=0.05;fillColor=none;align=left;fontFamily=Times New Roman;" vertex="1" parent="1">
          <mxGeometry x="840" y="480" width="150" height="190" as="geometry" />
        </mxCell>
        <mxCell id="UosIfSP0cZG50uaAi5DY-54" value="" style="endArrow=none;dashed=1;html=1;dashPattern=1 3;strokeWidth=2;rounded=0;entryX=0;entryY=0;entryDx=0;entryDy=0;entryPerimeter=0;exitX=0;exitY=0;exitDx=0;exitDy=0;exitPerimeter=0;" edge="1" parent="1" source="UosIfSP0cZG50uaAi5DY-13" target="UosIfSP0cZG50uaAi5DY-53">
          <mxGeometry width="50" height="50" relative="1" as="geometry">
            <mxPoint x="710" y="400" as="sourcePoint" />
            <mxPoint x="760" y="350" as="targetPoint" />
          </mxGeometry>
        </mxCell>
        <mxCell id="UosIfSP0cZG50uaAi5DY-55" value="" style="endArrow=none;html=1;rounded=0;exitX=0;exitY=0;exitDx=35;exitDy=100;exitPerimeter=0;" edge="1" parent="1">
          <mxGeometry width="50" height="50" relative="1" as="geometry">
            <mxPoint x="400" y="307.5" as="sourcePoint" />
            <mxPoint x="360" y="292.5" as="targetPoint" />
          </mxGeometry>
        </mxCell>
        <mxCell id="UosIfSP0cZG50uaAi5DY-56" value="Intel Xeon E5 2698&lt;br&gt;RAM 32 gb&lt;div&gt;RAID(HDD x 6) - 2 Tb&lt;/div&gt;&lt;div&gt;VDS/VPS Linux&lt;/div&gt;" style="shape=note;whiteSpace=wrap;html=1;backgroundOutline=1;darkOpacity=0.05;fillColor=none;align=left;fontFamily=Times New Roman;" vertex="1" parent="1">
          <mxGeometry x="950" y="170" width="150" height="80" as="geometry" />
        </mxCell>
        <mxCell id="UosIfSP0cZG50uaAi5DY-57" value="" style="endArrow=none;dashed=1;html=1;dashPattern=1 3;strokeWidth=2;rounded=0;entryX=0;entryY=0;entryDx=0;entryDy=0;entryPerimeter=0;exitX=0;exitY=0;exitDx=0;exitDy=0;exitPerimeter=0;" edge="1" parent="1" source="UosIfSP0cZG50uaAi5DY-56" target="UosIfSP0cZG50uaAi5DY-42">
          <mxGeometry width="50" height="50" relative="1" as="geometry">
            <mxPoint x="880" y="260" as="sourcePoint" />
            <mxPoint x="930" y="210" as="targetPoint" />
          </mxGeometry>
        </mxCell>
      </root>
    </mxGraphModel>
  </diagram>
</mxfile>
